<?xml version="1.0" standalone="no"?>
<!DOCTYPE svg PUBLIC "-//W3C//DTD SVG 1.1//EN" "http://www.w3.org/Graphics/SVG/1.1/DTD/svg11.dtd" >
<svg xmlns="http://www.w3.org/2000/svg" xmlns:xlink="http://www.w3.org/1999/xlink" version="1.1">
<metadata></metadata>
<defs>
<font id="webfontregular" horiz-adv-x="1780" >
<font-face units-per-em="2048" ascent="1638" descent="-410" />
<missing-glyph horiz-adv-x="567" />
<glyph horiz-adv-x="0" />
<glyph unicode="&#xd;" horiz-adv-x="567" />
<glyph horiz-adv-x="1516" d="M23 0l653 1513h168l649 -1513h-164l-219 508h-704l-220 -508h-163zM457 1845h129q21 -43 76 -71q52 -23 106 -23q60 0 109 22.5t73 71.5h129q-27 -104 -116 -160q-81 -51 -195 -51q-108 0 -194 51q-90 56 -117 160zM465 645h586l-291 694zM608 2154v15l3 29q4 17 11 30 q12 28 37 56q53 51 127 51q70 0 118 -48.5t48 -119.5q0 -49 -95 -151q-44 -49 -44 -99h-108q0 45 24.5 93t61.5 83l38 36q15 18 15 44q0 25 -17.5 43t-42.5 18q-28 0 -45 -16q-22 -20 -22 -64h-109z" />
<glyph horiz-adv-x="1212" d="M4 1513h166l436 -849l436 849h166l-526 -1007v-506h-152v506zM328 1774q39 42 83.5 64t96.5 22q59 0 133.5 -41t110.5 -41q30 0 66 21l42 30l62 -98q-15 -14 -33.5 -27t-47.5 -29q-45 -24 -87 -24l-37 3l-36 9q-10 4 -17 6.5t-16 7.5l-40 20l-39 18l-27 11q-26 7 -40 7 q-27 0 -62 -18q-11 -6 -25.5 -17.5t-27.5 -24.5z" />
<glyph unicode=" "  horiz-adv-x="567" />
<glyph unicode="&#x09;" horiz-adv-x="567" />
<glyph unicode="&#xa0;" horiz-adv-x="567" />
<glyph unicode="!" horiz-adv-x="604" d="M227 0v258h152v-258h-152zM227 395v1118h152v-1118h-152z" />
<glyph unicode="&#x22;" horiz-adv-x="633" d="M152 1051v462h106v-462h-106zM379 1051v462h106v-462h-106z" />
<glyph unicode="#" horiz-adv-x="1135" d="M10 512l33 119h307l74 252h-305l33 118h309l149 512h86l-147 -512h182l152 512h84l-150 -512h307l-32 -118h-310l-73 -252h307l-35 -119h-309l-150 -512h-88l152 512h-185l-151 -512h-86l151 512h-305zM436 631h187l71 252h-184z" />
<glyph unicode="$" horiz-adv-x="1135" d="M154 440v25h143q0 -114 78 -194.5t194 -80.5q108 0 187.5 76.5t79.5 184.5q0 127 -80 198q-57 51 -197 92q-49 14 -84.5 26t-53.5 21q-67 31 -119 81q-48 50 -74.5 118.5t-26.5 138.5q0 138 83 236t218 123v170h133v-170q144 -21 238 -123t94 -250h-144q0 102 -70 172 t-178 70q-46 0 -79 -11t-70 -40q-45 -38 -62.5 -81.5t-17.5 -105.5q0 -111 73 -168q43 -33 173 -74q46 -13 85 -26.5t59 -23.5q78 -35 128 -83q58 -56 87.5 -130.5t29.5 -157.5q0 -147 -101.5 -270.5t-244.5 -123.5v-170h-133v170q-144 24 -244 130q-104 110 -104 251z" />
<glyph unicode="%" horiz-adv-x="1587" d="M27 1184q0 150 102.5 252t257.5 102q148 0 250 -104.5t102 -253.5q0 -146 -106 -252.5t-248 -106.5q-147 0 -252.5 107.5t-105.5 255.5zM172 1182q0 -44 15 -81t47 -70q64 -64 149 -64q89 0 150 66t61 157q0 83 -60.5 143t-146.5 60q-95 0 -155 -59t-60 -152zM371 0 l680 1513h147l-680 -1513h-147zM825 328q0 154 104 259t257 105q150 0 252 -108t102 -258q0 -144 -106 -248.5t-250 -104.5q-147 0 -253 104t-106 251zM971 326q0 -87 63 -147t150 -60q89 0 150 63t61 152q0 88 -60.5 150.5t-148.5 62.5q-92 0 -153.5 -63.5t-61.5 -157.5z " />
<glyph unicode="&#x26;" horiz-adv-x="1550" d="M117 442q0 151 104 274q86 103 236 177q-41 42 -70 76q-11 14 -22.5 30t-21.5 33q-46 83 -46 176q0 133 108.5 231.5t245.5 98.5q153 0 263 -102.5t110 -255.5q0 -121 -92 -214q-78 -80 -205 -126l287 -283l219 426h170l-281 -534l383 -373l-108 -103l-346 338 q-78 -159 -182 -242q-120 -96 -283 -96q-195 0 -332 137t-137 332zM268 430q0 -121 90.5 -216t214.5 -95q93 0 164 43q58 34 115 111l39 61l47 86l-365 356l-65 -35q-110 -54 -169 -120q-71 -82 -71 -191zM449 1198q0 -62 57 -137q24 -30 108 -111q140 48 206 120 q52 58 52 130q0 78 -67 135.5t-146 57.5q-87 0 -148.5 -55t-61.5 -140z" />
<glyph unicode="'" horiz-adv-x="406" d="M152 1051v462h102v-462h-102z" />
<glyph unicode="(" horiz-adv-x="756" d="M117 623q0 297 162 548q77 118 175 207q117 108 232 135v-131q-189 -107 -303.5 -319.5t-114.5 -439.5q0 -224 113 -429q117 -215 305 -321v-133q-107 27 -223 131q-95 84 -172 197q-174 251 -174 555z" />
<glyph unicode=")" horiz-adv-x="756" d="M70 -127q184 102 304 321q113 209 113 429q0 231 -110 435q-114 213 -307 322v133q119 -33 232 -134q93 -84 173 -205t122 -262t42 -289q0 -155 -43 -293t-131 -262q-73 -108 -172 -197q-111 -99 -223 -131v133z" />
<glyph unicode="*" horiz-adv-x="870" d="M131 1192v104h211l-111 185l99 57l106 -184l111 184l94 -57l-109 -185h205v-104h-205l109 -180l-94 -58l-111 185l-106 -185l-99 58l111 180h-211z" />
<glyph unicode="+" horiz-adv-x="1241" d="M104 543v155h439v437h155v-437h439v-155h-439v-443h-155v443h-439z" />
<glyph unicode="," horiz-adv-x="567" d="M186 -137l181 395h151l-180 -395h-152z" />
<glyph unicode="-" horiz-adv-x="680" d="M63 547v137h555v-137h-555z" />
<glyph unicode="." horiz-adv-x="567" d="M207 0v258h151v-258h-151z" />
<glyph unicode="/" horiz-adv-x="895" d="M82 -262l592 1775h139l-596 -1775h-135z" />
<glyph unicode="0" horiz-adv-x="1135" d="M61 575v394q0 66 5 116t18 98q24 90 94.5 176t173.5 132.5t217 46.5q109 0 204.5 -40.5t167.5 -119.5t107 -191q27 -92 27 -218v-394q0 -24 -2 -65t-2 -58q0 -23 -3.5 -47.5t-9.5 -46.5q-24 -107 -95.5 -199t-173.5 -139q-44 -20 -105 -35q-54 -12 -115 -12 q-62 0 -113.5 10t-103.5 33q-95 43 -168 131t-103 204q-10 43 -15 97t-5 127zM213 600q0 -111 9 -174q15 -99 57 -162q51 -72 123.5 -108.5t166.5 -36.5q99 0 177 42t126 126q33 56 45 152l5 68l2 93v334q0 60 -4 108t-13 83q-17 69 -49 118q-45 68 -125 109t-164 41 q-87 0 -174.5 -47.5t-130.5 -124.5q-27 -50 -40 -131l-8 -75l-3 -81v-334z" />
<glyph unicode="1" horiz-adv-x="1135" d="M317 1376v137h408v-1513h-152v1376h-256z" />
<glyph unicode="2" horiz-adv-x="1135" d="M68 0v135l577 557q80 75 109 110q64 70 93 128q38 73 38 147q0 135 -97 225.5t-235 90.5q-84 0 -159.5 -42.5t-119.5 -115.5q-23 -43 -33 -95q-4 -23 -7 -54t-3 -62h-151q0 222 133.5 368t351.5 146q100 0 178 -30.5t150 -102.5q63 -63 103 -149t40 -177q0 -103 -42 -196 q-36 -78 -107 -158q-40 -43 -142 -141l-469 -447h752v-137h-960z" />
<glyph unicode="3" horiz-adv-x="1135" d="M68 473h151q0 -64 11 -105q10 -43 40 -89q44 -69 117 -116q36 -22 73.5 -33t80.5 -11q139 0 239.5 99.5t100.5 240.5q0 105 -63 192t-163 123q-30 11 -70 15l-54 5l-46 1h-34v135l51 -4q121 0 195 56q85 64 85 181q0 101 -67.5 165.5t-169.5 64.5q-97 0 -164 -79 q-59 -73 -59 -177h-152q0 172 108 286.5t279 114.5q158 0 267.5 -114t109.5 -273q0 -91 -40 -158.5t-116 -126.5q113 -51 183.5 -165t70.5 -240q0 -204 -142 -346t-345 -142q-201 0 -339 147.5t-138 352.5z" />
<glyph unicode="4" horiz-adv-x="1135" d="M25 276v138l733 1099h184v-1099h137v-138h-137v-276h-151v276h-766zM203 414h588v891z" />
<glyph unicode="5" horiz-adv-x="1135" d="M53 475h152q0 -141 105 -248.5t255 -107.5q155 0 260 111t105 270q0 152 -103.5 268.5t-259.5 116.5q-86 0 -173 -45q-77 -42 -138 -115l-121 43l137 745h684v-137h-561l-76 -418q54 32 123.5 52t132.5 20q213 0 361 -158q145 -154 145 -368q0 -216 -146 -373.5 t-362 -157.5q-215 0 -367.5 146.5t-152.5 355.5z" />
<glyph unicode="6" horiz-adv-x="1135" d="M51 500q0 93 27 177q24 74 70 151l98 149l358 536h176l-358 -532q18 11 37 19t47 16q47 12 96 12q201 0 344 -164q137 -158 137 -362q0 -50 -9 -98t-29 -98q-37 -95 -109 -173q-151 -160 -373 -160q-208 0 -360 156.5t-152 370.5zM203 510q0 -160 101 -273 q106 -118 261 -118q150 0 258.5 112.5t108.5 266.5q0 156 -104 269q-107 116 -263 116q-154 0 -258 -109.5t-104 -263.5z" />
<glyph unicode="7" horiz-adv-x="1135" d="M131 1376v137h873v-137l-619 -1376h-164l623 1376h-713z" />
<glyph unicode="8" horiz-adv-x="1135" d="M86 444q0 31 4 61.5t13 59.5q16 58 54 121q72 117 185 160q-83 42 -129.5 122t-46.5 181q0 166 118.5 277.5t288.5 111.5q169 0 282.5 -116t113.5 -283q0 -92 -48 -174t-133 -119q118 -51 189.5 -161t71.5 -239q0 -198 -145 -335.5t-343 -137.5q-192 0 -333.5 138 t-141.5 333zM238 436q0 -133 95 -225t228 -92q141 0 238.5 93.5t97.5 233.5q0 133 -99.5 225.5t-234.5 92.5q-136 0 -230.5 -96t-94.5 -232zM317 1157q0 -106 74 -177t180 -71q96 0 171 72t75 170q0 100 -71 171t-173 71q-103 0 -179.5 -67t-76.5 -169z" />
<glyph unicode="9" horiz-adv-x="1135" d="M51 1010q0 98 39 196t109 172q151 160 372 160q209 0 360.5 -156.5t151.5 -367.5q0 -91 -27 -178q-21 -72 -70 -150l-97 -149l-359 -537h-176l359 530q-42 -24 -87 -36l-45 -8l-51 -3q-198 0 -342 165q-137 160 -137 362zM203 1016q0 -153 111 -267t255 -114 q154 0 258.5 107t104.5 259q0 160 -101 274q-106 118 -262 118q-151 0 -258.5 -112t-107.5 -265z" />
<glyph unicode=":" horiz-adv-x="567" d="M207 0v258h151v-258h-151zM207 786v258h151v-258h-151z" />
<glyph unicode=";" horiz-adv-x="567" d="M84 -137l180 395h152l-180 -395h-152zM264 786v258h152v-258h-152z" />
<glyph unicode="&#x3c;" horiz-adv-x="1241" d="M100 551v131l1043 475v-149l-848 -392l848 -391v-149z" />
<glyph unicode="=" horiz-adv-x="1241" d="M104 340v154h1033v-154h-1033zM104 739v154h1033v-154h-1033z" />
<glyph unicode="&#x3e;" horiz-adv-x="1241" d="M98 76v149l848 391l-848 392v149l1043 -475v-131z" />
<glyph unicode="?" horiz-adv-x="1210" d="M133 1040v43q0 88 37.5 171.5t101.5 146.5q69 66 159.5 101.5t186.5 35.5q194 0 325.5 -133t131.5 -328q0 -129 -99 -246l-185 -190q-99 -116 -99 -246h-151q0 120 61 230q53 95 152 184l84 81q41 44 63.5 92.5t22.5 111.5q0 125 -95.5 212t-224.5 87q-137 0 -231 -106 t-94 -247h-146zM541 0v258h151v-258h-151z" />
<glyph unicode="@" horiz-adv-x="1776" d="M145 764q0 320 231 548t554 228q135 0 258 -45t227 -133q217 -188 217 -475q0 -204 -121 -377q-68 -96 -153 -157q-100 -68 -207 -68q-60 0 -109.5 26t-68.5 82q-44 -44 -112 -76q-35 -14 -67 -21q-16 -3 -32 -5t-35 -2q-127 0 -207 90.5t-80 218.5q0 225 141 417 q153 210 371 210q74 0 136.5 -35.5t95.5 -102.5l30 97h140l-209 -625l-17 -53q-8 -35 -10 -53q0 -23 18 -43q19 -17 44 -17q64 0 139 56q30 23 58 51t50.5 60t42 72t33.5 84.5t22 89.5q3 21 5 43t2 46q0 239 -187 398q-176 147 -421 147q-280 0 -477 -204t-197 -486 q0 -279 199.5 -476.5t478.5 -197.5q157 0 304.5 75t242.5 207l122 2q-94 -174 -280 -281q-92 -52 -189 -78t-200 -26q-329 0 -556 230t-227 559zM598 608q0 -78 40 -131q44 -57 120 -57q73 0 141 59q53 46 94 123q46 90 72 170q35 108 35 180q0 62 -41 106t-103 44 q-151 0 -261 -176q-97 -159 -97 -318z" />
<glyph unicode="A" horiz-adv-x="1516" d="M23 0l653 1513h168l649 -1513h-164l-219 508h-704l-220 -508h-163zM465 645h586l-291 694z" />
<glyph unicode="B" horiz-adv-x="1176" d="M156 0v1513h354q109 0 189 -13.5t155 -61.5q79 -52 128.5 -141t49.5 -185t-42.5 -170.5t-125.5 -132.5q117 -48 183.5 -148t66.5 -233q0 -107 -49 -198.5t-136.5 -147.5t-200.5 -72l-89 -7l-127 -3h-356zM307 137h187h39q64 0 104.5 2t73.5 8q60 11 102 35q62 33 105 102 q21 35 32 69.5t11 72.5q0 48 -12 90.5t-38 78.5q-48 72 -139 103q-27 9 -58 15.5t-70 10.5l-89 2l-88 3h-160v-592zM307 866h164h36q88 0 144.5 8t109 37t86.5 89.5t34 121.5q0 60 -33 117t-84.5 88.5t-137.5 43.5q-55 5 -143 5h-176v-510z" />
<glyph unicode="C" horiz-adv-x="1665" d="M90 762q0 320 228.5 548t553.5 228q123 0 232 -32q56 -15 106.5 -38t98.5 -57q81 -51 151 -124q81 -84 111 -163h-168q-81 124 -226 196.5t-303 72.5q-255 0 -443.5 -190t-188.5 -441q0 -264 191.5 -453.5t451.5 -189.5q154 0 293.5 74.5t230.5 201.5h168 q-98 -189 -289 -305.5t-403 -116.5q-334 0 -564.5 227.5t-230.5 561.5z" />
<glyph unicode="D" horiz-adv-x="1524" d="M156 0v1513h407q101 0 171.5 -7.5t141.5 -27.5q156 -42 282 -143.5t201 -255.5t75 -319q0 -158 -66 -308q-33 -75 -78 -138.5t-104 -116.5q-124 -112 -286 -160q-136 -37 -327 -37h-417zM307 137h195q125 0 193 6q103 9 186 37.5t168 95.5q110 86 171.5 213.5t61.5 270.5 q0 290 -235 479q-79 61 -170 93q-70 24 -161.5 34t-213.5 10h-195v-1239z" />
<glyph unicode="E" horiz-adv-x="1098" d="M156 0v1513h827v-137h-676v-545h654v-137h-654v-557h676v-137h-827z" />
<glyph unicode="F" horiz-adv-x="993" d="M156 0v1513h768v-137h-617v-547h594v-137h-594v-692h-151z" />
<glyph unicode="G" horiz-adv-x="1786" d="M90 764q0 153 62.5 293.5t173 251t262 170t313.5 59.5q122 0 233 -32t212 -97q84 -57 154 -130q80 -84 110 -169h-172q-78 131 -227 207q-76 38 -153 57t-157 19q-124 0 -241 -42.5t-210 -128t-150.5 -210t-57.5 -250.5q0 -273 197 -460q192 -183 468 -183q207 0 381 123 t232 319h-846v137h1028q0 -301 -247 -518q-237 -207 -554 -207q-331 0 -571 230t-240 561z" />
<glyph unicode="H" horiz-adv-x="1399" d="M156 0v1513h151v-665h785v665h151v-1513h-151v711h-785v-711h-151z" />
<glyph unicode="I" horiz-adv-x="463" d="M156 0v1513h151v-1513h-151z" />
<glyph unicode="J" horiz-adv-x="987" d="M23 358h149q0 -103 78.5 -171t189.5 -68q76 0 134.5 38.5t87.5 112.5l10 40l5 45l3 116v1042h151v-1087q0 -115 -10 -159q-15 -77 -70.5 -146t-142.5 -108.5t-182 -39.5q-165 0 -284 111.5t-119 273.5z" />
<glyph unicode="K" horiz-adv-x="1210" d="M156 0v1513h151v-870l699 870h192l-598 -737l598 -776h-188l-506 655l-197 -241v-414h-151z" />
<glyph unicode="L" horiz-adv-x="946" d="M156 0v1513h151v-1376h627v-137h-778z" />
<glyph unicode="M" horiz-adv-x="1882" d="M156 0v1513h233l553 -1288l551 1288h233v-1513h-151v1346l-569 -1346h-129l-570 1346v-1346h-151z" />
<glyph unicode="N" horiz-adv-x="1516" d="M156 0v1513h204l848 -1255v1255h152v-1513h-152l-901 1331v-1331h-151z" />
<glyph unicode="O" d="M90 750q0 327 234.5 557.5t564.5 230.5q324 0 562.5 -226t238.5 -550q0 -328 -235 -558.5t-566 -230.5q-321 0 -558 225q-241 230 -241 552zM242 750q0 -258 194 -444.5t455 -186.5q267 0 457 187.5t190 455.5q0 259 -192.5 445t-454.5 186q-267 0 -458 -188t-191 -455z " />
<glyph unicode="P" horiz-adv-x="1212" d="M156 0v1513h397q149 0 210 -11q112 -17 195 -70q97 -60 148 -158.5t51 -214.5q0 -107 -42 -196t-130 -154q-79 -58 -187 -82q-83 -17 -206 -17h-285v-610h-151zM307 748h260q125 0 190 15t115 46q61 37 97.5 106.5t36.5 145.5q0 99 -48 171t-141 111q-45 20 -100 27 l-57 5l-62 2l-48 -1h-48h-195v-628z" />
<glyph unicode="Q" horiz-adv-x="1784" d="M90 745q0 342 236.5 567.5t578.5 225.5q346 0 579.5 -225.5t233.5 -571.5q0 -157 -66.5 -300t-187.5 -255q40 -28 97 -53l49 -15q17 -3 25 -4t26 -1l33 2v-142h-19q-181 0 -319 129q-92 -63 -214 -96t-241 -33q-328 0 -567 221q-244 226 -244 551zM242 743l1 -44 q0 -18 0.5 -26t4.5 -29q4 -32 18 -73q160 56 324 56q230 0 417 -89q161 -75 353 -247q94 88 150.5 206.5t56.5 245.5q0 276 -193 463t-471 187q-274 0 -467.5 -187.5t-193.5 -462.5zM328 442q30 -60 92 -122q54 -54 119 -97q79 -52 177.5 -78t196.5 -26q84 0 170 21 q92 24 156 69l-80 61q-67 53 -121 89q-61 39 -135.5 66t-168.5 44l-89 12l-84 4q-69 0 -122.5 -9.5t-110.5 -33.5z" />
<glyph unicode="R" horiz-adv-x="1243" d="M156 0v1513h360q15 0 45 -1t45 -1h38t35 -2q17 0 33 -1t32 -4q30 -3 72 -15q70 -15 130 -49q114 -63 175 -175.5t61 -244.5q0 -186 -131.5 -320.5t-315.5 -134.5l426 -565h-188l-514 686h45h40h25h20h16h14h11q44 0 62 5q77 9 142 36q92 42 144 125t52 182 q0 80 -38 153.5t-102.5 117.5t-164.5 62q-59 9 -178 9h-240v-1376h-151z" />
<glyph unicode="S" horiz-adv-x="1020" d="M45 424h162q0 -126 87 -215.5t216 -89.5q131 0 222 85t91 214q0 62 -27.5 118.5t-73.5 94.5t-114 65l-123 37q-18 4 -38.5 9t-45.5 14l-56 19q-76 29 -126 73q-60 51 -93.5 125t-33.5 157q0 177 125 293q62 57 138 86t167 29q174 0 295 -118t121 -292h-158 q0 114 -79 189.5t-197 75.5q-107 0 -183.5 -78.5t-76.5 -186.5q0 -84 44 -140q36 -45 112 -79l58 -22l85 -25q127 -36 152 -46q42 -15 75 -36q34 -19 64 -47q64 -55 102.5 -142t38.5 -175q0 -183 -137 -313t-324 -130q-194 0 -331.5 127.5t-137.5 323.5z" />
<glyph unicode="T" horiz-adv-x="872" d="M14 1376v137h844v-137h-344v-1376h-152v1376h-348z" />
<glyph unicode="U" horiz-adv-x="1341" d="M156 594v919h151v-919q0 -48 3 -91t10 -84q13 -75 58 -145t123.5 -112.5t170.5 -42.5q85 0 157 35.5t120 100t71 162.5q14 72 14 177v919h152v-919q0 -139 -19 -224q-13 -58 -36 -108t-59 -97q-67 -90 -175.5 -141t-224.5 -51q-118 0 -218.5 45.5t-174 134t-102.5 209.5 q-21 90 -21 232z" />
<glyph unicode="V" horiz-adv-x="1438" d="M20 1513h166l531 -1325l534 1325h166l-629 -1513h-143z" />
<glyph unicode="W" horiz-adv-x="1966" d="M20 1513h158l371 -1318l362 1318h144l362 -1316l371 1316h158l-433 -1513h-198l-332 1241l-334 -1241h-198z" />
<glyph unicode="X" horiz-adv-x="1247" d="M16 0l514 774l-483 739h176l402 -606l399 606h176l-489 -739l520 -774h-178l-428 647l-430 -647h-179z" />
<glyph unicode="Y" horiz-adv-x="1212" d="M4 1513h166l436 -849l436 849h166l-526 -1007v-506h-152v506z" />
<glyph unicode="Z" horiz-adv-x="983" d="M35 0v135l743 1241h-721v137h891v-137l-741 -1239h764v-137h-936z" />
<glyph unicode="[" horiz-adv-x="719" d="M229 328v592q0 136 20 207q24 99 95 186q57 69 132 123q79 57 165 77v-155q-144 -63 -207 -171q-57 -99 -57 -267v-568q0 -182 49 -276q57 -112 215 -180v-156q-74 15 -143.5 59t-126.5 107q-80 89 -115 196q-27 89 -27 226z" />
<glyph unicode="\" horiz-adv-x="1239" d="M172 1513h145l633 -1513h-143z" />
<glyph unicode="]" horiz-adv-x="719" d="M78 -104q140 57 206 169q58 105 58 267v565q0 111 -9 161q-14 76 -65 148q-33 54 -82 91q-39 30 -108 61v155q80 -18 144 -60t126 -107q84 -93 115 -197q26 -90 26 -225v-592q0 -137 -20 -207q-24 -96 -96 -186q-54 -68 -132 -125t-163 -74v156z" />
<glyph unicode="^" horiz-adv-x="1241" d="M37 369l522 1144h119l526 -1144h-131l-457 991l-448 -991h-131z" />
<glyph unicode="_" horiz-adv-x="1024" d="M0 -137h1024v-119h-1024v119z" />
<glyph unicode="`" horiz-adv-x="774" d="M152 1473l65 122l406 -221l-68 -119z" />
<glyph unicode="a" horiz-adv-x="1516" d="M23 0l653 1513h168l649 -1513h-164l-219 508h-704l-220 -508h-163zM465 645h586l-291 694z" />
<glyph unicode="b" horiz-adv-x="1176" d="M156 0v1513h354q109 0 189 -13.5t155 -61.5q79 -52 128.5 -141t49.5 -185t-42.5 -170.5t-125.5 -132.5q117 -48 183.5 -148t66.5 -233q0 -107 -49 -198.5t-136.5 -147.5t-200.5 -72l-89 -7l-127 -3h-356zM307 137h187h39q64 0 104.5 2t73.5 8q60 11 102 35q62 33 105 102 q21 35 32 69.5t11 72.5q0 48 -12 90.5t-38 78.5q-48 72 -139 103q-27 9 -58 15.5t-70 10.5l-89 2l-88 3h-160v-592zM307 866h164h36q88 0 144.5 8t109 37t86.5 89.5t34 121.5q0 60 -33 117t-84.5 88.5t-137.5 43.5q-55 5 -143 5h-176v-510z" />
<glyph unicode="c" horiz-adv-x="1665" d="M90 762q0 320 228.5 548t553.5 228q123 0 232 -32q56 -15 106.5 -38t98.5 -57q81 -51 151 -124q81 -84 111 -163h-168q-81 124 -226 196.5t-303 72.5q-255 0 -443.5 -190t-188.5 -441q0 -264 191.5 -453.5t451.5 -189.5q154 0 293.5 74.5t230.5 201.5h168 q-98 -189 -289 -305.5t-403 -116.5q-334 0 -564.5 227.5t-230.5 561.5z" />
<glyph unicode="d" horiz-adv-x="1524" d="M156 0v1513h407q101 0 171.5 -7.5t141.5 -27.5q156 -42 282 -143.5t201 -255.5t75 -319q0 -158 -66 -308q-33 -75 -78 -138.5t-104 -116.5q-124 -112 -286 -160q-136 -37 -327 -37h-417zM307 137h195q125 0 193 6q103 9 186 37.5t168 95.5q110 86 171.5 213.5t61.5 270.5 q0 290 -235 479q-79 61 -170 93q-70 24 -161.5 34t-213.5 10h-195v-1239z" />
<glyph unicode="e" horiz-adv-x="1098" d="M156 0v1513h827v-137h-676v-545h654v-137h-654v-557h676v-137h-827z" />
<glyph unicode="f" horiz-adv-x="993" d="M156 0v1513h768v-137h-617v-547h594v-137h-594v-692h-151z" />
<glyph unicode="g" horiz-adv-x="1786" d="M90 764q0 153 62.5 293.5t173 251t262 170t313.5 59.5q122 0 233 -32t212 -97q84 -57 154 -130q80 -84 110 -169h-172q-78 131 -227 207q-76 38 -153 57t-157 19q-124 0 -241 -42.5t-210 -128t-150.5 -210t-57.5 -250.5q0 -273 197 -460q192 -183 468 -183q207 0 381 123 t232 319h-846v137h1028q0 -301 -247 -518q-237 -207 -554 -207q-331 0 -571 230t-240 561z" />
<glyph unicode="h" horiz-adv-x="1399" d="M156 0v1513h151v-665h785v665h151v-1513h-151v711h-785v-711h-151z" />
<glyph unicode="i" horiz-adv-x="463" d="M156 0v1513h151v-1513h-151z" />
<glyph unicode="j" horiz-adv-x="987" d="M23 358h149q0 -103 78.5 -171t189.5 -68q76 0 134.5 38.5t87.5 112.5l10 40l5 45l3 116v1042h151v-1087q0 -115 -10 -159q-15 -77 -70.5 -146t-142.5 -108.5t-182 -39.5q-165 0 -284 111.5t-119 273.5z" />
<glyph unicode="k" horiz-adv-x="1210" d="M156 0v1513h151v-870l699 870h192l-598 -737l598 -776h-188l-506 655l-197 -241v-414h-151z" />
<glyph unicode="l" horiz-adv-x="946" d="M156 0v1513h151v-1376h627v-137h-778z" />
<glyph unicode="m" horiz-adv-x="1882" d="M156 0v1513h233l553 -1288l551 1288h233v-1513h-151v1346l-569 -1346h-129l-570 1346v-1346h-151z" />
<glyph unicode="n" horiz-adv-x="1516" d="M156 0v1513h204l848 -1255v1255h152v-1513h-152l-901 1331v-1331h-151z" />
<glyph unicode="o" d="M90 750q0 327 234.5 557.5t564.5 230.5q324 0 562.5 -226t238.5 -550q0 -328 -235 -558.5t-566 -230.5q-321 0 -558 225q-241 230 -241 552zM242 750q0 -258 194 -444.5t455 -186.5q267 0 457 187.5t190 455.5q0 259 -192.5 445t-454.5 186q-267 0 -458 -188t-191 -455z " />
<glyph unicode="p" horiz-adv-x="1212" d="M156 0v1513h397q149 0 210 -11q112 -17 195 -70q97 -60 148 -158.5t51 -214.5q0 -107 -42 -196t-130 -154q-79 -58 -187 -82q-83 -17 -206 -17h-285v-610h-151zM307 748h260q125 0 190 15t115 46q61 37 97.5 106.5t36.5 145.5q0 99 -48 171t-141 111q-45 20 -100 27 l-57 5l-62 2l-48 -1h-48h-195v-628z" />
<glyph unicode="q" horiz-adv-x="1784" d="M90 745q0 342 236.5 567.5t578.5 225.5q346 0 579.5 -225.5t233.5 -571.5q0 -157 -66.5 -300t-187.5 -255q40 -28 97 -53l49 -15q17 -3 25 -4t26 -1l33 2v-142h-19q-181 0 -319 129q-92 -63 -214 -96t-241 -33q-328 0 -567 221q-244 226 -244 551zM242 743l1 -44 q0 -18 0.5 -26t4.5 -29q4 -32 18 -73q160 56 324 56q230 0 417 -89q161 -75 353 -247q94 88 150.5 206.5t56.5 245.5q0 276 -193 463t-471 187q-274 0 -467.5 -187.5t-193.5 -462.5zM328 442q30 -60 92 -122q54 -54 119 -97q79 -52 177.5 -78t196.5 -26q84 0 170 21 q92 24 156 69l-80 61q-67 53 -121 89q-61 39 -135.5 66t-168.5 44l-89 12l-84 4q-69 0 -122.5 -9.5t-110.5 -33.5z" />
<glyph unicode="r" horiz-adv-x="1243" d="M156 0v1513h360q15 0 45 -1t45 -1h38t35 -2q17 0 33 -1t32 -4q30 -3 72 -15q70 -15 130 -49q114 -63 175 -175.5t61 -244.5q0 -186 -131.5 -320.5t-315.5 -134.5l426 -565h-188l-514 686h45h40h25h20h16h14h11q44 0 62 5q77 9 142 36q92 42 144 125t52 182 q0 80 -38 153.5t-102.5 117.5t-164.5 62q-59 9 -178 9h-240v-1376h-151z" />
<glyph unicode="s" horiz-adv-x="1020" d="M45 424h162q0 -126 87 -215.5t216 -89.5q131 0 222 85t91 214q0 62 -27.5 118.5t-73.5 94.5t-114 65l-123 37q-18 4 -38.5 9t-45.5 14l-56 19q-76 29 -126 73q-60 51 -93.5 125t-33.5 157q0 177 125 293q62 57 138 86t167 29q174 0 295 -118t121 -292h-158 q0 114 -79 189.5t-197 75.5q-107 0 -183.5 -78.5t-76.5 -186.5q0 -84 44 -140q36 -45 112 -79l58 -22l85 -25q127 -36 152 -46q42 -15 75 -36q34 -19 64 -47q64 -55 102.5 -142t38.5 -175q0 -183 -137 -313t-324 -130q-194 0 -331.5 127.5t-137.5 323.5z" />
<glyph unicode="t" horiz-adv-x="872" d="M14 1376v137h844v-137h-344v-1376h-152v1376h-348z" />
<glyph unicode="u" horiz-adv-x="1341" d="M156 594v919h151v-919q0 -48 3 -91t10 -84q13 -75 58 -145t123.5 -112.5t170.5 -42.5q85 0 157 35.5t120 100t71 162.5q14 72 14 177v919h152v-919q0 -139 -19 -224q-13 -58 -36 -108t-59 -97q-67 -90 -175.5 -141t-224.5 -51q-118 0 -218.5 45.5t-174 134t-102.5 209.5 q-21 90 -21 232z" />
<glyph unicode="v" horiz-adv-x="1438" d="M20 1513h166l531 -1325l534 1325h166l-629 -1513h-143z" />
<glyph unicode="w" horiz-adv-x="1966" d="M20 1513h158l371 -1318l362 1318h144l362 -1316l371 1316h158l-433 -1513h-198l-332 1241l-334 -1241h-198z" />
<glyph unicode="x" horiz-adv-x="1247" d="M16 0l514 774l-483 739h176l402 -606l399 606h176l-489 -739l520 -774h-178l-428 647l-430 -647h-179z" />
<glyph unicode="y" horiz-adv-x="1212" d="M4 1513h166l436 -849l436 849h166l-526 -1007v-506h-152v506z" />
<glyph unicode="z" horiz-adv-x="983" d="M35 0v135l743 1241h-721v137h891v-137l-741 -1239h764v-137h-936z" />
<glyph unicode="{" horiz-adv-x="719" d="M76 627l31 9q6 2 14 5t14 6q24 11 49 31q38 29 53 81q3 16 5 40.5t2 58.5v346q0 177 63 243t248 66q-90 -24 -127 -82.5t-37 -152.5v-365q0 -126 -32 -183q-39 -75 -152 -103q105 -21 148 -88q36 -57 36 -172v-392q0 -101 33.5 -152.5t130.5 -82.5q-87 0 -123 6 q-60 9 -108.5 45.5t-67.5 100.5q-12 44 -12 122v389v14v12q0 44 -5 57q-2 13 -4 19t-10 18q-8 17 -24 38q-51 57 -125 66z" />
<glyph unicode="|" horiz-adv-x="1376" d="M623 0v1513h131v-1513h-131z" />
<glyph unicode="}" horiz-adv-x="719" d="M78 -260q90 27 124 81.5t34 153.5v392q0 21 0.5 45.5t7.5 55.5q7 41 27 71q39 66 149 88q-108 27 -152 102q-32 59 -32 184v365q0 95 -35.5 151t-122.5 84q178 0 243 -68q62 -65 62 -241v-346q0 -70 7 -98q12 -46 54 -82q20 -16 49 -31l34 -13l24 -7q-72 -9 -123 -66 q-27 -32 -38 -68l-5 -39l-2 -51v-389v-24v-25q-2 -10 -2 -14q0 -28 -9 -58q-15 -63 -67 -100q-34 -25 -82 -40q-52 -13 -145 -13z" />
<glyph unicode="~" horiz-adv-x="1241" d="M104 532q78 139 153 196q64 46 140 46q62 0 158 -37l164 -71q85 -35 129 -35q59 0 121 57q45 44 82 113l86 -96q-57 -102 -117 -156q-80 -72 -174 -72q-56 0 -178 48l-99 42l-83 34q-49 17 -89 17q-69 0 -127 -61q-24 -26 -82 -123z" />
<glyph horiz-adv-x="1516" d="M23 0l653 1513h168l649 -1513h-164l-219 508h-704l-220 -508h-163zM465 645h586l-291 694zM682 -162h152v-258h-152v258z" />
<glyph horiz-adv-x="1516" d="M23 0l653 1513h168l649 -1513h-164l-219 508h-704l-220 -508h-163zM457 1845h129q21 -43 76 -71q52 -23 106 -23q60 0 109 22.5t73 71.5h129q-27 -104 -116 -160q-81 -51 -195 -51q-108 0 -194 51q-90 56 -117 160zM465 645h586l-291 694zM721 1909l283 280l65 -65 l-283 -281z" />
<glyph horiz-adv-x="1098" d="M156 0v1513h827v-137h-676v-545h654v-137h-654v-557h676v-137h-827zM215 1634l297 258h131l297 -258h-184l-178 150l-179 -150h-184zM281 2126q39 42 83.5 64t96.5 22q59 0 133.5 -41t110.5 -41q30 0 66 21l42 30l61 -98q-36 -33 -81.5 -56.5t-85.5 -23.5l-37 3l-36 9 q-10 4 -17 6.5t-16 7.5l-40 20l-39 18l-27 11q-26 7 -40 7q-27 0 -62 -18q-11 -6 -25.5 -17.5t-27.5 -24.5z" />
<glyph horiz-adv-x="1098" d="M156 0v1513h827v-137h-676v-545h654v-137h-654v-557h676v-137h-827zM186 1649l297 258h131l297 -258h-184l-178 149l-178 -149h-185zM498 -137h151v-258h-151v258z" />
<glyph d="M90 750q0 327 234.5 557.5t564.5 230.5q324 0 562.5 -226t238.5 -550q0 -328 -235 -558.5t-566 -230.5q-321 0 -558 225q-241 230 -241 552zM242 750q0 -258 194 -444.5t455 -186.5q267 0 457 187.5t190 455.5q0 259 -192.5 445t-454.5 186q-267 0 -458 -188t-191 -455z M528 1649l297 258h131l297 -258h-184l-178 149l-178 -149h-185zM1069 1909l283 280l65 -65l-282 -281z" />
<glyph d="M90 750q0 327 234.5 557.5t564.5 230.5q324 0 562.5 -226t238.5 -550q0 -328 -235 -558.5t-566 -230.5q-321 0 -558 225q-241 230 -241 552zM242 750q0 -258 194 -444.5t455 -186.5q267 0 457 187.5t190 455.5q0 259 -192.5 445t-454.5 186q-267 0 -458 -188t-191 -455z M373 2122l65 65l283 -280l-66 -66zM528 1649l297 258h131l297 -258h-184l-178 149l-178 -149h-185z" />
<glyph horiz-adv-x="1341" d="M156 594v919h151v-919q0 -48 3 -91t10 -84q13 -75 58 -145t123.5 -112.5t170.5 -42.5q85 0 157 35.5t120 100t71 162.5q14 72 14 177v919h152v-919q0 -139 -19 -224q-13 -58 -36 -108t-59 -97q-67 -90 -175.5 -141t-224.5 -51q-118 0 -218.5 45.5t-174 134t-102.5 209.5 q-21 90 -21 232zM360 1796q39 42 84 64t97 22q56 0 131.5 -41t111.5 -41q30 0 68 22l41 29l61 -98q-33 -33 -80 -56.5t-88 -23.5l-37 3q-7 1 -18.5 4t-20.5 7l-71 33l-34 16l-29 13q-18 6 -41 6q-30 0 -60 -15.5t-55 -43.5z" />
<glyph horiz-adv-x="1341" d="M156 594v919h151v-919q0 -48 3 -91t10 -84q13 -75 58 -145t123.5 -112.5t170.5 -42.5q85 0 157 35.5t120 100t71 162.5q14 72 14 177v919h152v-919q0 -139 -19 -224q-13 -58 -36 -108t-59 -97q-67 -90 -175.5 -141t-224.5 -51q-118 0 -218.5 45.5t-174 134t-102.5 209.5 q-21 90 -21 232zM596 -150h152v-258h-152v258z" />
<glyph unicode="&#xa0;" d="M90 750q0 327 234.5 557.5t564.5 230.5q324 0 562.5 -226t238.5 -550q0 -328 -235 -558.5t-566 -230.5q-321 0 -558 225q-241 230 -241 552zM242 750q0 -258 194 -444.5t455 -186.5q267 0 457 187.5t190 455.5q0 259 -192.5 445t-454.5 186q-267 0 -458 -188t-191 -455z M594 1772q39 42 83.5 64t96.5 22q60 0 134.5 -41t109.5 -41q30 0 66 21l42 30l62 -98q-15 -14 -33.5 -27t-47.5 -29q-45 -24 -87 -24l-37 3q-7 1 -18.5 4t-20.5 7q-23 8 -67.5 31.5t-69.5 30t-39 6.5q-27 0 -62 -18q-11 -6 -25.5 -17.5t-27.5 -24.5z" />
<glyph unicode="&#xa1;" horiz-adv-x="1516" d="M23 0l653 1513h168l649 -1513h-164l-219 508h-704l-220 -508h-163zM457 1845h129q21 -43 76 -71q52 -23 106 -23q60 0 109 22.5t73 71.5h129q-27 -104 -116 -160q-81 -51 -195 -51q-108 0 -194 51q-90 56 -117 160zM465 645h586l-291 694zM721 1909l283 280l65 -65 l-283 -281z" />
<glyph unicode="&#xa2;" horiz-adv-x="1516" d="M23 0l653 1513h168l649 -1513h-164l-219 508h-704l-220 -508h-163zM457 1855h129q21 -43 76 -71q52 -23 106 -23q60 0 109 22.5t73 71.5h129q-26 -104 -116 -159q-81 -51 -195 -51q-113 0 -194 50q-90 56 -117 160zM465 645h586l-291 694zM485 2132l66 66l283 -281 l-66 -66z" />
<glyph unicode="&#xa3;" horiz-adv-x="1516" d="M23 0l653 1513h168l649 -1513h-164l-219 508h-704l-220 -508h-163zM457 1835h129q21 -47 76 -72q50 -22 106 -22q59 0 108.5 22.5t73.5 71.5h129q-27 -104 -116 -160q-81 -51 -195 -51q-108 0 -194 51q-90 56 -117 160zM465 645h586l-291 694zM682 -162h152v-258h-152 v258z" />
<glyph unicode="&#xa4;" horiz-adv-x="1516" d="M23 0l653 1513h168l649 -1513h-164l-219 508h-704l-220 -508h-163zM395 1649l297 258h131l297 -258h-184l-178 149l-178 -149h-185zM465 645h586l-291 694zM936 1898l283 281l65 -65l-283 -281z" />
<glyph unicode="&#xa5;" horiz-adv-x="1516" d="M23 0l653 1513h168l649 -1513h-164l-219 508h-704l-220 -508h-163zM229 2122l66 65l283 -280l-66 -66zM399 1634l297 258h131l297 -258h-184l-178 150l-178 -150h-185zM465 645h586l-291 694z" />
<glyph unicode="&#xa6;" horiz-adv-x="1516" d="M23 0l653 1513h168l649 -1513h-164l-219 508h-704l-220 -508h-163zM399 1645l297 258h131l297 -258h-184l-178 149l-178 -149h-185zM465 645h586l-291 694zM903 2073v14l3 29q4 17 11 30q12 28 37 56q53 51 127 51q70 0 118 -48.5t48 -119.5q0 -49 -95 -151 q-44 -49 -44 -99h-109q0 45 24.5 93t61.5 83l39 36q15 17 15 44q0 25 -17.5 43t-42.5 18q-27 0 -45 -15q-22 -20 -22 -64h-109z" />
<glyph unicode="&#xa7;" horiz-adv-x="1516" d="M23 0l653 1513h168l649 -1513h-164l-219 508h-704l-220 -508h-163zM395 1649l297 258h131l297 -258h-184l-178 149l-178 -149h-185zM465 645h586l-291 694zM682 -162h152v-258h-152v258z" />
<glyph unicode="&#xa8;" horiz-adv-x="1098" d="M156 0v1513h827v-137h-676v-545h654v-137h-654v-557h676v-137h-827zM287 1784q39 42 83.5 64t96.5 22q59 0 133.5 -41t110.5 -41q30 0 66 21l42 30l62 -98q-15 -14 -33.5 -27t-47.5 -29q-45 -24 -87 -24l-37 3l-36 9q-10 4 -17 6.5t-16 7.5l-40 20l-39 18l-27 11 q-26 7 -40 7q-27 0 -62 -18q-11 -6 -25.5 -17.5t-27.5 -24.5z" />
<glyph unicode="&#xa9;" horiz-adv-x="1098" d="M156 0v1513h827v-137h-676v-545h654v-137h-654v-557h676v-137h-827zM498 -137h151v-258h-151v258z" />
<glyph unicode="&#xaa;" horiz-adv-x="1098" d="M156 0v1513h827v-137h-676v-545h654v-137h-654v-557h676v-137h-827zM215 1634l297 258h131l297 -258h-184l-178 150l-179 -150h-184zM772 1909l283 280l65 -65l-282 -281z" />
<glyph unicode="&#xab;" horiz-adv-x="1098" d="M45 2122l66 65l282 -280l-65 -66zM156 0v1513h827v-137h-676v-545h654v-137h-654v-557h676v-137h-827zM215 1634l297 258h131l297 -258h-184l-178 150l-179 -150h-184z" />
<glyph unicode="&#xac;" horiz-adv-x="1098" d="M156 0v1513h827v-137h-676v-545h654v-137h-654v-557h676v-137h-827zM215 1634l297 258h131l297 -258h-184l-178 150l-179 -150h-184zM707 2073v14q0 15 3 29.5t10 31.5q14 32 38 54q53 51 127 51q69 0 117.5 -48.5t48.5 -119.5q0 -52 -44 -100q-96 -105 -96 -150h-108 q0 45 24.5 93t61.5 83l39 36q14 17 14 44q0 25 -17.5 43t-41.5 18q-26 0 -46 -15q-22 -20 -22 -64h-108z" />
<glyph unicode="&#xad;" horiz-adv-x="1098" d="M156 0v1513h827v-137h-676v-545h654v-137h-654v-557h676v-137h-827zM215 1634l297 258h131l297 -258h-184l-178 150l-179 -150h-184zM281 2126q39 42 83.5 64t96.5 22q59 0 133.5 -41t110.5 -41q30 0 66 21l42 30l61 -98q-36 -33 -81.5 -56.5t-85.5 -23.5l-37 3l-36 9 q-10 4 -17 6.5t-16 7.5l-40 20l-39 18l-27 11q-26 7 -40 7q-27 0 -62 -18q-11 -6 -25.5 -17.5t-27.5 -24.5z" />
<glyph unicode="&#xae;" horiz-adv-x="1098" d="M156 0v1513h827v-137h-676v-545h654v-137h-654v-557h676v-137h-827zM186 1649l297 258h131l297 -258h-184l-178 149l-178 -149h-185zM498 -137h151v-258h-151v258z" />
<glyph unicode="&#xaf;" d="M90 750q0 327 234.5 557.5t564.5 230.5q324 0 562.5 -226t238.5 -550q0 -328 -235 -558.5t-566 -230.5q-321 0 -558 225q-241 230 -241 552zM242 750q0 -258 194 -444.5t455 -186.5q267 0 457 187.5t190 455.5q0 259 -192.5 445t-454.5 186q-267 0 -458 -188t-191 -455z M528 1649l297 258h131l297 -258h-184l-178 149l-178 -149h-185zM1069 1909l283 280l65 -65l-282 -281z" />
<glyph unicode="&#xb0;" d="M90 750q0 327 234.5 557.5t564.5 230.5q324 0 562.5 -226t238.5 -550q0 -328 -235 -558.5t-566 -230.5q-321 0 -558 225q-241 230 -241 552zM242 750q0 -258 194 -444.5t455 -186.5q267 0 457 187.5t190 455.5q0 259 -192.5 445t-454.5 186q-267 0 -458 -188t-191 -455z M373 2122l65 65l283 -280l-66 -66zM528 1649l297 258h131l297 -258h-184l-178 149l-178 -149h-185z" />
<glyph unicode="&#xb1;" d="M90 750q0 327 234.5 557.5t564.5 230.5q324 0 562.5 -226t238.5 -550q0 -328 -235 -558.5t-566 -230.5q-321 0 -558 225q-241 230 -241 552zM242 750q0 -258 194 -444.5t455 -186.5q267 0 457 187.5t190 455.5q0 259 -192.5 445t-454.5 186q-267 0 -458 -188t-191 -455z M528 1649l297 258h131l297 -258h-184l-178 149l-178 -149h-185zM1067 2073v14l3 29q4 17 11 30q12 28 37 56q53 51 127 51q69 0 117.5 -48.5t48.5 -119.5q0 -49 -95 -151q-44 -49 -44 -99h-109q0 45 24.5 93t61.5 83l39 36q15 17 15 44q0 25 -17.5 43t-42.5 18 q-27 0 -45 -15q-22 -20 -22 -64h-109z" />
<glyph unicode="&#xb2;" d="M90 750q0 327 234.5 557.5t564.5 230.5q324 0 562.5 -226t238.5 -550q0 -328 -235 -558.5t-566 -230.5q-321 0 -558 225q-241 230 -241 552zM242 750q0 -258 194 -444.5t455 -186.5q267 0 457 187.5t190 455.5q0 259 -192.5 445t-454.5 186q-267 0 -458 -188t-191 -455z M528 1649l297 258h131l297 -258h-184l-178 149l-178 -149h-185zM606 2140q38 41 82 63.5t98 22.5q60 0 134.5 -41t109.5 -41q30 0 68 22l41 29l61 -98q-33 -33 -80 -56.5t-88 -23.5l-37 3q-7 1 -18.5 4t-20.5 7l-71 33l-37 19q-38 16 -68 16q-31 0 -61 -17q-28 -14 -53 -42z " />
<glyph unicode="&#xb3;" d="M90 750q0 327 234.5 557.5t564.5 230.5q34 0 52 -1t64 -6.5t95 -21.5q103 -27 196 -82v207h152v-258h-74q143 -107 229.5 -268t86.5 -346q0 -328 -235 -558.5t-566 -230.5q-321 0 -558 225q-241 230 -241 552zM242 750q0 -258 194 -444.5t455 -186.5q267 0 457 187.5 t190 455.5q0 259 -192.5 445t-454.5 186q-267 0 -458 -188t-191 -455zM594 1772q39 42 83.5 64t96.5 22q60 0 134.5 -41t109.5 -41q30 0 66 21l42 30l62 -98q-15 -14 -33.5 -27t-47.5 -29q-45 -24 -87 -24l-37 3q-7 1 -18.5 4t-20.5 7q-23 8 -67.5 31.5t-69.5 30t-39 6.5 q-27 0 -62 -18q-11 -6 -25.5 -17.5t-27.5 -24.5z" />
<glyph unicode="&#xb4;" d="M90 750q0 327 234.5 557.5t564.5 230.5q34 0 52 -1t64 -6.5t95 -21.5q103 -27 196 -82v207h152v-258h-74q143 -107 229.5 -268t86.5 -346q0 -328 -235 -558.5t-566 -230.5q-321 0 -558 225q-241 230 -241 552zM242 750q0 -258 194 -444.5t455 -186.5q267 0 457 187.5 t190 455.5q0 259 -192.5 445t-454.5 186q-267 0 -458 -188t-191 -455z" />
<glyph unicode="&#xb5;" d="M90 750q0 327 234.5 557.5t564.5 230.5q324 0 562.5 -226t238.5 -550q0 -328 -235 -558.5t-566 -230.5q-321 0 -558 225q-241 230 -241 552zM242 750q0 -258 194 -444.5t455 -186.5q267 0 457 187.5t190 455.5q0 259 -192.5 445t-454.5 186q-267 0 -458 -188t-191 -455z M528 1649l297 258h131l297 -258h-184l-178 149l-178 -149h-185zM805 -162h151v-258h-151v258z" />
<glyph unicode="&#xb6;" d="M90 750q0 327 234.5 557.5t564.5 230.5q34 0 52 -1t64 -6.5t95 -21.5q103 -27 196 -82v207h152v-258h-74q143 -107 229.5 -268t86.5 -346q0 -328 -235 -558.5t-566 -230.5q-321 0 -558 225q-241 230 -241 552zM242 750q0 -258 194 -444.5t455 -186.5q267 0 457 187.5 t190 455.5q0 259 -192.5 445t-454.5 186q-267 0 -458 -188t-191 -455zM655 1866l66 123l405 -222l-67 -118z" />
<glyph unicode="&#xb8;" horiz-adv-x="463" d="M156 0v1513h151v-1513h-151zM160 -147h151v-259h-151v259z" />
<glyph unicode="&#xb9;" horiz-adv-x="1341" d="M156 594v919h151v-919q0 -48 3 -91t10 -84q13 -75 58 -145t123.5 -112.5t170.5 -42.5q85 0 157 35.5t120 100t71 162.5q14 72 14 177v919h103v121h151v-258h-102v-782q0 -139 -19 -224q-13 -58 -36 -108t-59 -97q-67 -90 -175.5 -141t-224.5 -51q-118 0 -218.5 45.5 t-174 134t-102.5 209.5q-21 90 -21 232zM625 -164h151v-258h-151v258z" />
<glyph unicode="&#xba;" horiz-adv-x="1341" d="M156 594v919h151v-919q0 -48 3 -91t10 -84q13 -75 58 -145t123.5 -112.5t170.5 -42.5q85 0 157 35.5t120 100t71 162.5q14 72 14 177v919h103v121h151v-258h-102v-782q0 -139 -19 -224q-13 -58 -36 -108t-59 -97q-67 -90 -175.5 -141t-224.5 -51q-118 0 -218.5 45.5 t-174 134t-102.5 209.5q-21 90 -21 232zM438 1763l393 238l72 -119l-395 -233z" />
<glyph unicode="&#xbb;" horiz-adv-x="1341" d="M156 594v919h151v-919q0 -48 3 -91t10 -84q13 -75 58 -145t123.5 -112.5t170.5 -42.5q85 0 157 35.5t120 100t71 162.5q14 72 14 177v919h103v121h151v-258h-102v-782q0 -139 -19 -224q-13 -58 -36 -108t-59 -97q-67 -90 -175.5 -141t-224.5 -51q-118 0 -218.5 45.5 t-174 134t-102.5 209.5q-21 90 -21 232zM436 1866l66 123l405 -222l-67 -118z" />
<glyph unicode="&#xbc;" horiz-adv-x="1341" d="M156 594v919h151v-919q0 -48 3 -91t10 -84q13 -75 58 -145t123.5 -112.5t170.5 -42.5q85 0 157 35.5t120 100t71 162.5q14 72 14 177v919h103v121h151v-258h-102v-782q0 -139 -19 -224q-13 -58 -36 -108t-59 -97q-67 -90 -175.5 -141t-224.5 -51q-118 0 -218.5 45.5 t-174 134t-102.5 209.5q-21 90 -21 232zM494 1876v14q0 15 3 29.5t10 31.5q13 29 37.5 53.5t58.5 38.5q39 13 69 13q69 0 117.5 -48.5t48.5 -119.5q0 -52 -44 -99q-96 -105 -96 -151h-108q0 43 27 97q24 45 59 80l39 35q14 17 14 44t-17.5 44.5t-41.5 17.5q-27 0 -46 -16 q-22 -20 -22 -64h-108z" />
<glyph unicode="&#xbd;" d="M90 750q0 327 234.5 557.5t564.5 230.5q34 0 52 -1t64 -6.5t95 -21.5q103 -27 196 -82v207h152v-258h-74q143 -107 229.5 -268t86.5 -346q0 -328 -235 -558.5t-566 -230.5q-321 0 -558 225q-241 230 -241 552zM242 750q0 -258 194 -444.5t455 -186.5q267 0 457 187.5 t190 455.5q0 259 -192.5 445t-454.5 186q-267 0 -458 -188t-191 -455z" />
<glyph unicode="&#xbe;" d="M90 750q0 327 234.5 557.5t564.5 230.5q34 0 52 -1t64 -6.5t95 -21.5q103 -27 196 -82v207h152v-258h-74q143 -107 229.5 -268t86.5 -346q0 -328 -235 -558.5t-566 -230.5q-321 0 -558 225q-241 230 -241 552zM242 750q0 -258 194 -444.5t455 -186.5q267 0 457 187.5 t190 455.5q0 259 -192.5 445t-454.5 186q-267 0 -458 -188t-191 -455zM657 1763l394 238l71 -119l-395 -233z" />
<glyph unicode="&#xbf;" horiz-adv-x="1341" d="M156 594v919h151v-919q0 -48 3 -91t10 -84q13 -75 58 -145t123.5 -112.5t170.5 -42.5q85 0 157 35.5t120 100t71 162.5q14 72 14 177v919h103v121h151v-258h-102v-782q0 -139 -19 -224q-13 -58 -36 -108t-59 -97q-67 -90 -175.5 -141t-224.5 -51q-118 0 -218.5 45.5 t-174 134t-102.5 209.5q-21 90 -21 232z" />
<glyph unicode="&#xc0;" horiz-adv-x="1516" d="M23 0l653 1513h168l649 -1513h-164l-219 508h-704l-220 -508h-163zM465 645h586l-291 694zM522 1866l66 123l405 -222l-67 -118z" />
<glyph unicode="&#xc1;" horiz-adv-x="1516" d="M23 0l653 1513h168l649 -1513h-164l-219 508h-704l-220 -508h-163zM465 645h586l-291 694zM526 1763l394 238l71 -119l-395 -233z" />
<glyph unicode="&#xc2;" horiz-adv-x="1516" d="M23 0l653 1513h168l649 -1513h-164l-219 508h-704l-220 -508h-163zM395 1649l297 258h131l297 -258h-184l-178 149l-178 -149h-185zM465 645h586l-291 694z" />
<glyph unicode="&#xc3;" horiz-adv-x="1516" d="M23 0l653 1513h168l649 -1513h-164l-219 508h-704l-220 -508h-163zM463 1772q39 42 83.5 64t96.5 22q60 0 134.5 -41t109.5 -41q30 0 66 21l42 30l62 -98q-15 -14 -33.5 -27t-47.5 -29q-45 -24 -87 -24l-37 3q-7 1 -18.5 4t-20.5 7q-23 8 -67.5 31.5t-69.5 30t-39 6.5 q-27 0 -62 -18q-11 -6 -25.5 -17.5t-27.5 -24.5zM465 645h586l-291 694z" />
<glyph unicode="&#xc4;" horiz-adv-x="1516" d="M23 0l653 1513h168l649 -1513h-164l-219 508h-704l-220 -508h-163zM465 645h586l-291 694zM608 1876v14l3 29q4 17 11 30q12 28 37 56q21 21 58 38q39 13 69 13q70 0 118 -48.5t48 -119.5q0 -57 -69.5 -125.5t-69.5 -124.5h-108q0 43 27 97q24 45 59 80l38 35 q15 17 15 44t-17.5 44.5t-42.5 17.5q-28 0 -45 -16q-22 -20 -22 -64h-109z" />
<glyph unicode="&#xc5;" horiz-adv-x="1516" d="M23 0l653 1513h168l649 -1513h-164l-219 508h-704l-220 -508h-163zM457 1835h129q21 -47 76 -72q50 -22 106 -22q59 0 108.5 22.5t73.5 71.5h129q-27 -104 -116 -160q-81 -51 -195 -51q-108 0 -194 51q-90 56 -117 160zM465 645h586l-291 694z" />
<glyph unicode="&#xc6;" horiz-adv-x="1516" d="M23 0l653 1513h168l649 -1513h-164l-219 508h-704l-220 -508h-163zM457 1845h129q21 -43 76 -71q52 -23 106 -23q60 0 109 22.5t73 71.5h129q-27 -104 -116 -160q-81 -51 -195 -51q-108 0 -194 51q-90 56 -117 160zM465 645h586l-291 694zM608 2154v15l3 29q4 17 11 30 q12 28 37 56q53 51 127 51q70 0 118 -48.5t48 -119.5q0 -49 -95 -151q-44 -49 -44 -99h-108q0 45 24.5 93t61.5 83l38 36q15 18 15 44q0 25 -17.5 43t-42.5 18q-28 0 -45 -16q-22 -20 -22 -64h-109z" />
<glyph unicode="&#xc7;" horiz-adv-x="1516" d="M23 0l653 1513h168l649 -1513h-164l-219 508h-704l-220 -508h-163zM465 645h586l-291 694zM467 1855h129q21 -45 72.5 -69.5t109.5 -24.5t108.5 22.5t74.5 71.5h129q-26 -104 -116 -159q-83 -51 -196 -51t-194 50q-90 56 -117 160zM475 2091q38 41 82 63.5t98 22.5 q60 0 134.5 -41t109.5 -41q30 0 68 22l41 29l61 -98q-33 -33 -80 -56.5t-88 -23.5l-37 3q-7 1 -18.5 4t-20.5 7l-71 33l-37 19q-38 16 -68 16q-31 0 -61 -17q-28 -14 -53 -42z" />
<glyph unicode="&#xc8;" horiz-adv-x="1098" d="M156 0v1513h827v-137h-676v-545h654v-137h-654v-557h676v-137h-827zM313 1866l66 123l405 -222l-67 -118z" />
<glyph unicode="&#xc9;" horiz-adv-x="1098" d="M156 0v1513h827v-137h-676v-545h654v-137h-654v-557h676v-137h-827zM317 1763l394 238l71 -119l-395 -233z" />
<glyph unicode="&#xca;" horiz-adv-x="1098" d="M156 0v1513h827v-137h-676v-545h654v-137h-654v-557h676v-137h-827zM186 1649l297 258h131l297 -258h-184l-178 149l-178 -149h-185z" />
<glyph unicode="&#xcb;" horiz-adv-x="1098" d="M156 0v1513h827v-137h-676v-545h654v-137h-654v-557h676v-137h-827zM395 1876v14l3 29q4 17 11 30q12 28 37 56q21 21 58 38q39 13 69 13q70 0 118 -48.5t48 -119.5q0 -57 -69.5 -125.5t-69.5 -124.5h-108q0 43 27 97q24 45 59 80l38 35q15 17 15 44t-17.5 44.5 t-42.5 17.5q-28 0 -45 -16q-22 -20 -22 -64h-109z" />
<glyph unicode="&#xcc;" horiz-adv-x="463" d="M-4 1866l65 123l406 -222l-68 -118zM156 0v1513h151v-1513h-151z" />
<glyph unicode="&#xcd;" horiz-adv-x="463" d="M0 1763l393 238l72 -119l-395 -233zM156 0v1513h151v-1513h-151z" />
<glyph unicode="&#xce;" horiz-adv-x="463" d="M-82 1784q38 41 82 63.5t98 22.5q60 0 134.5 -41t109.5 -41q30 0 54 14q18 9 55 37l61 -98q-15 -14 -33.5 -27t-47.5 -29q-45 -24 -87 -24l-37 3q-7 1 -18.5 4t-20.5 7l-28 12l-43 21q-37 18 -64 28l-21 5l-20 2q-27 0 -62 -18q-11 -6 -25.5 -17.5t-27.5 -24.5zM156 0 v1513h151v-1513h-151z" />
<glyph unicode="&#xcf;" horiz-adv-x="1212" d="M4 1513h166l436 -849l436 849h166l-526 -1007v-506h-152v506zM227 1890l66 123l405 -221l-67 -119z" />
<glyph unicode="&#xd0;" horiz-adv-x="1618" d="M53 737v137h197v639h407q101 0 171.5 -7.5t141.5 -27.5q156 -42 282 -143.5t201 -255.5t75 -319q0 -162 -63 -306t-187 -259q-120 -110 -284 -158q-61 -16 -147 -27q-37 -4 -86 -7t-93 -3h-418v737h-197zM401 137h195q126 0 194 6q103 9 186 38t167 95 q110 86 171.5 213.5t61.5 270.5q0 290 -235 479q-79 61 -170 93q-70 24 -161.5 34t-213.5 10h-195v-502h267v-137h-267v-600z" />
<glyph unicode="&#xd1;" horiz-adv-x="1341" d="M156 594v919h151v-919q0 -48 3 -91t10 -84q13 -75 58 -145t123.5 -112.5t170.5 -42.5q85 0 157 35.5t120 100t71 162.5q14 72 14 177v919h103v121h151v-258h-102v-782q0 -139 -19 -224q-13 -58 -36 -108t-59 -97q-67 -90 -175.5 -141t-224.5 -51q-118 0 -218.5 45.5 t-174 134t-102.5 209.5q-21 90 -21 232zM438 1763l393 238l72 -119l-395 -233z" />
<glyph unicode="&#xd2;" d="M90 750q0 327 234.5 557.5t564.5 230.5q324 0 562.5 -226t238.5 -550q0 -328 -235 -558.5t-566 -230.5q-321 0 -558 225q-241 230 -241 552zM242 750q0 -258 194 -444.5t455 -186.5q267 0 457 187.5t190 455.5q0 259 -192.5 445t-454.5 186q-267 0 -458 -188t-191 -455z M655 1866l66 123l405 -222l-67 -118z" />
<glyph unicode="&#xd3;" d="M90 750q0 327 234.5 557.5t564.5 230.5q324 0 562.5 -226t238.5 -550q0 -328 -235 -558.5t-566 -230.5q-321 0 -558 225q-241 230 -241 552zM242 750q0 -258 194 -444.5t455 -186.5q267 0 457 187.5t190 455.5q0 259 -192.5 445t-454.5 186q-267 0 -458 -188t-191 -455z M657 1763l394 238l71 -119l-395 -233z" />
<glyph unicode="&#xd4;" d="M90 750q0 327 234.5 557.5t564.5 230.5q324 0 562.5 -226t238.5 -550q0 -328 -235 -558.5t-566 -230.5q-321 0 -558 225q-241 230 -241 552zM242 750q0 -258 194 -444.5t455 -186.5q267 0 457 187.5t190 455.5q0 259 -192.5 445t-454.5 186q-267 0 -458 -188t-191 -455z M528 1649l297 258h131l297 -258h-184l-178 149l-178 -149h-185z" />
<glyph unicode="&#xd5;" horiz-adv-x="1516" d="M23 0l653 1513h168l649 -1513h-164l-219 508h-704l-220 -508h-163zM465 645h586l-291 694zM682 -162h152v-258h-152v258z" />
<glyph unicode="&#xd6;" horiz-adv-x="1212" d="M4 1513h166l436 -849l436 849h166l-526 -1007v-506h-152v506zM480 1848v14l3 29q4 17 11 30q15 30 38 56q50 51 127 51q69 0 117 -48.5t48 -119.5q0 -57 -69.5 -125.5t-69.5 -124.5h-108q0 43 27 97q24 45 59 80l38 35q15 17 15 44t-17.5 44.5t-42.5 17.5q-28 0 -45 -16 q-22 -20 -22 -64h-109z" />
<glyph unicode="&#xd7;" horiz-adv-x="1341" d="M156 594v919h151v-919q0 -48 3 -91t10 -84q13 -75 58 -145t123.5 -112.5t170.5 -42.5q85 0 157 35.5t120 100t71 162.5q14 72 14 177v919h103v121h151v-258h-102v-782q0 -139 -19 -224q-13 -58 -36 -108t-59 -97q-67 -90 -175.5 -141t-224.5 -51q-118 0 -218.5 45.5 t-174 134t-102.5 209.5q-21 90 -21 232zM436 1866l66 123l405 -222l-67 -118z" />
<glyph unicode="&#xd8;" horiz-adv-x="1341" d="M156 594v919h151v-919q0 -48 3 -91t10 -84q13 -75 58 -145t123.5 -112.5t170.5 -42.5q85 0 157 35.5t120 100t71 162.5q14 72 14 177v919h103v121h151v-258h-102v-782q0 -139 -19 -224q-13 -58 -36 -108t-59 -97q-67 -90 -175.5 -141t-224.5 -51q-118 0 -218.5 45.5 t-174 134t-102.5 209.5q-21 90 -21 232zM494 1876v14q0 15 3 29.5t10 31.5q13 29 37.5 53.5t58.5 38.5q39 13 69 13q69 0 117.5 -48.5t48.5 -119.5q0 -52 -44 -99q-96 -105 -96 -151h-108q0 43 27 97q24 45 59 80l39 35q14 17 14 44t-17.5 44.5t-41.5 17.5q-27 0 -46 -16 q-22 -20 -22 -64h-108z" />
<glyph unicode="&#xd9;" horiz-adv-x="1341" d="M156 594v919h151v-919q0 -48 3 -91t10 -84q13 -75 58 -145t123.5 -112.5t170.5 -42.5q85 0 157 35.5t120 100t71 162.5q14 72 14 177v919h152v-919q0 -139 -19 -224q-13 -58 -36 -108t-59 -97q-67 -90 -175.5 -141t-224.5 -51q-118 0 -218.5 45.5t-174 134t-102.5 209.5 q-21 90 -21 232zM436 1866l66 123l405 -222l-67 -118z" />
<glyph unicode="&#xda;" horiz-adv-x="1341" d="M156 594v919h151v-919q0 -48 3 -91t10 -84q13 -75 58 -145t123.5 -112.5t170.5 -42.5q85 0 157 35.5t120 100t71 162.5q14 72 14 177v919h152v-919q0 -139 -19 -224q-13 -58 -36 -108t-59 -97q-67 -90 -175.5 -141t-224.5 -51q-118 0 -218.5 45.5t-174 134t-102.5 209.5 q-21 90 -21 232zM438 1763l393 238l72 -119l-395 -233z" />
<glyph unicode="&#xdb;" horiz-adv-x="1212" d="M4 1513h166l436 -849l436 849h166l-526 -1007v-506h-152v506zM328 1774q39 42 83.5 64t96.5 22q59 0 133.5 -41t110.5 -41q30 0 66 21l42 30l62 -98q-15 -14 -33.5 -27t-47.5 -29q-45 -24 -87 -24l-37 3l-36 9q-10 4 -17 6.5t-16 7.5l-40 20l-39 18l-27 11q-26 7 -40 7 q-27 0 -62 -18q-11 -6 -25.5 -17.5t-27.5 -24.5z" />
<glyph unicode="&#xdc;" horiz-adv-x="1212" d="M4 1513h166l436 -849l436 849h166l-526 -1007v-506h-152v506zM537 -123h152v-258h-152v258z" />
<glyph unicode="&#xdd;" horiz-adv-x="1212" d="M4 1513h166l436 -849l436 849h166l-526 -1007v-506h-152v506zM375 1763l393 238l72 -119l-396 -233z" />
<glyph unicode="&#xde;" d="M90 750q0 327 234.5 557.5t564.5 230.5q34 0 52 -1t64 -6.5t95 -21.5q103 -27 196 -82v207h152v-258h-74q143 -107 229.5 -268t86.5 -346q0 -328 -235 -558.5t-566 -230.5q-321 0 -558 225q-241 230 -241 552zM242 750q0 -258 194 -444.5t455 -186.5q267 0 457 187.5 t190 455.5q0 259 -192.5 445t-454.5 186q-267 0 -458 -188t-191 -455zM594 1772q39 42 83.5 64t96.5 22q60 0 134.5 -41t109.5 -41q30 0 66 21l42 30l62 -98q-15 -14 -33.5 -27t-47.5 -29q-45 -24 -87 -24l-37 3q-7 1 -18.5 4t-20.5 7q-23 8 -67.5 31.5t-69.5 30t-39 6.5 q-27 0 -62 -18q-11 -6 -25.5 -17.5t-27.5 -24.5z" />
<glyph unicode="&#xdf;" horiz-adv-x="1341" d="M156 594v919h151v-919q0 -48 3 -91t10 -84q13 -75 58 -145t123.5 -112.5t170.5 -42.5q85 0 157 35.5t120 100t71 162.5q14 72 14 177v919h103v121h151v-258h-102v-782q0 -139 -19 -224q-13 -58 -36 -108t-59 -97q-67 -90 -175.5 -141t-224.5 -51q-118 0 -218.5 45.5 t-174 134t-102.5 209.5q-21 90 -21 232z" />
<glyph unicode="&#xe0;" horiz-adv-x="1516" d="M23 0l653 1513h168l649 -1513h-164l-219 508h-704l-220 -508h-163zM465 645h586l-291 694zM522 1866l66 123l405 -222l-67 -118z" />
<glyph unicode="&#xe1;" horiz-adv-x="1516" d="M23 0l653 1513h168l649 -1513h-164l-219 508h-704l-220 -508h-163zM465 645h586l-291 694zM526 1763l394 238l71 -119l-395 -233z" />
<glyph unicode="&#xe2;" horiz-adv-x="1516" d="M23 0l653 1513h168l649 -1513h-164l-219 508h-704l-220 -508h-163zM395 1649l297 258h131l297 -258h-184l-178 149l-178 -149h-185zM465 645h586l-291 694z" />
<glyph unicode="&#xe3;" horiz-adv-x="1516" d="M23 0l653 1513h168l649 -1513h-164l-219 508h-704l-220 -508h-163zM463 1772q39 42 83.5 64t96.5 22q60 0 134.5 -41t109.5 -41q30 0 66 21l42 30l62 -98q-15 -14 -33.5 -27t-47.5 -29q-45 -24 -87 -24l-37 3q-7 1 -18.5 4t-20.5 7q-23 8 -67.5 31.5t-69.5 30t-39 6.5 q-27 0 -62 -18q-11 -6 -25.5 -17.5t-27.5 -24.5zM465 645h586l-291 694z" />
<glyph unicode="&#xe4;" horiz-adv-x="1516" d="M23 0l653 1513h168l649 -1513h-164l-219 508h-704l-220 -508h-163zM465 645h586l-291 694zM608 1876v14l3 29q4 17 11 30q12 28 37 56q21 21 58 38q39 13 69 13q70 0 118 -48.5t48 -119.5q0 -57 -69.5 -125.5t-69.5 -124.5h-108q0 43 27 97q24 45 59 80l38 35 q15 17 15 44t-17.5 44.5t-42.5 17.5q-28 0 -45 -16q-22 -20 -22 -64h-109z" />
<glyph unicode="&#xe5;" horiz-adv-x="1516" d="M23 0l653 1513h168l649 -1513h-164l-219 508h-704l-220 -508h-163zM457 1835h129q21 -47 76 -72q50 -22 106 -22q59 0 108.5 22.5t73.5 71.5h129q-27 -104 -116 -160q-81 -51 -195 -51q-108 0 -194 51q-90 56 -117 160zM465 645h586l-291 694z" />
<glyph unicode="&#xe6;" horiz-adv-x="1341" d="M156 594v919h151v-919q0 -48 3 -91t10 -84q13 -75 58 -145t123.5 -112.5t170.5 -42.5q85 0 157 35.5t120 100t71 162.5q14 72 14 177v919h103v121h151v-258h-102v-782q0 -139 -19 -224q-13 -58 -36 -108t-59 -97q-67 -90 -175.5 -141t-224.5 -51q-118 0 -218.5 45.5 t-174 134t-102.5 209.5q-21 90 -21 232zM360 1796q39 42 84 64t97 22q56 0 131.5 -41t111.5 -41q30 0 68 22l41 29l61 -98q-33 -33 -80 -56.5t-88 -23.5l-37 3q-7 1 -18.5 4t-20.5 7l-71 33l-34 16l-29 13q-18 6 -41 6q-30 0 -60 -15.5t-55 -43.5z" />
<glyph unicode="&#xe7;" horiz-adv-x="1516" d="M23 0l653 1513h168l649 -1513h-164l-219 508h-704l-220 -508h-163zM410 1645l297 258h131l297 -258h-185l-178 149l-178 -149h-184zM465 645h586l-291 694zM475 2136q38 41 82 63.5t98 22.5q60 0 134.5 -41t109.5 -41q30 0 68 22l41 29l61 -98q-33 -33 -80 -56.5 t-88 -23.5l-37 3q-7 1 -18.5 4t-20.5 7l-71 33l-37 19q-38 16 -68 16q-31 0 -61 -17q-28 -14 -53 -42z" />
<glyph unicode="&#xe8;" horiz-adv-x="1098" d="M156 0v1513h827v-137h-676v-545h654v-137h-654v-557h676v-137h-827zM313 1866l66 123l405 -222l-67 -118z" />
<glyph unicode="&#xe9;" horiz-adv-x="1098" d="M156 0v1513h827v-137h-676v-545h654v-137h-654v-557h676v-137h-827zM317 1763l394 238l71 -119l-395 -233z" />
<glyph unicode="&#xea;" horiz-adv-x="1098" d="M156 0v1513h827v-137h-676v-545h654v-137h-654v-557h676v-137h-827zM186 1649l297 258h131l297 -258h-184l-178 149l-178 -149h-185z" />
<glyph unicode="&#xeb;" horiz-adv-x="1098" d="M156 0v1513h827v-137h-676v-545h654v-137h-654v-557h676v-137h-827zM395 1876v14l3 29q4 17 11 30q12 28 37 56q21 21 58 38q39 13 69 13q70 0 118 -48.5t48 -119.5q0 -57 -69.5 -125.5t-69.5 -124.5h-108q0 43 27 97q24 45 59 80l38 35q15 17 15 44t-17.5 44.5 t-42.5 17.5q-28 0 -45 -16q-22 -20 -22 -64h-109z" />
<glyph unicode="&#xec;" horiz-adv-x="463" d="M-4 1866l65 123l406 -222l-68 -118zM156 0v1513h151v-1513h-151z" />
<glyph unicode="&#xed;" horiz-adv-x="463" d="M0 1763l393 238l72 -119l-395 -233zM156 0v1513h151v-1513h-151z" />
<glyph unicode="&#xee;" horiz-adv-x="463" d="M-82 1784q38 41 82 63.5t98 22.5q60 0 134.5 -41t109.5 -41q30 0 54 14q18 9 55 37l61 -98q-15 -14 -33.5 -27t-47.5 -29q-45 -24 -87 -24l-37 3q-7 1 -18.5 4t-20.5 7l-28 12l-43 21q-37 18 -64 28l-21 5l-20 2q-27 0 -62 -18q-11 -6 -25.5 -17.5t-27.5 -24.5zM156 0 v1513h151v-1513h-151z" />
<glyph unicode="&#xef;" horiz-adv-x="463" d="M84 1876v14q0 15 3 29.5t10 31.5q13 29 37.5 53.5t58.5 38.5q39 13 69 13q69 0 117.5 -48.5t48.5 -119.5q0 -57 -69.5 -125.5t-69.5 -124.5h-109q0 43 27 97q24 45 59 80l39 35q14 17 14 44q0 28 -17 45t-42 17q-28 0 -45 -16q-22 -20 -22 -64h-109zM156 0v1513h151 v-1513h-151z" />
<glyph unicode="&#xf0;" horiz-adv-x="1618" d="M53 737v137h197v639h407q101 0 171.5 -7.5t141.5 -27.5q156 -42 282 -143.5t201 -255.5t75 -319q0 -162 -63 -306t-187 -259q-120 -110 -284 -158q-61 -16 -147 -27q-37 -4 -86 -7t-93 -3h-418v737h-197zM401 137h195q126 0 194 6q103 9 186 38t167 95 q110 86 171.5 213.5t61.5 270.5q0 290 -235 479q-79 61 -170 93q-70 24 -161.5 34t-213.5 10h-195v-502h267v-137h-267v-600z" />
<glyph unicode="&#xf1;" horiz-adv-x="1341" d="M156 594v919h151v-919q0 -48 3 -91t10 -84q13 -75 58 -145t123.5 -112.5t170.5 -42.5q85 0 157 35.5t120 100t71 162.5q14 72 14 177v919h103v121h151v-258h-102v-782q0 -139 -19 -224q-13 -58 -36 -108t-59 -97q-67 -90 -175.5 -141t-224.5 -51q-118 0 -218.5 45.5 t-174 134t-102.5 209.5q-21 90 -21 232zM625 -164h151v-258h-151v258z" />
<glyph unicode="&#xf2;" d="M90 750q0 327 234.5 557.5t564.5 230.5q324 0 562.5 -226t238.5 -550q0 -328 -235 -558.5t-566 -230.5q-321 0 -558 225q-241 230 -241 552zM242 750q0 -258 194 -444.5t455 -186.5q267 0 457 187.5t190 455.5q0 259 -192.5 445t-454.5 186q-267 0 -458 -188t-191 -455z M655 1866l66 123l405 -222l-67 -118z" />
<glyph unicode="&#xf3;" d="M90 750q0 327 234.5 557.5t564.5 230.5q324 0 562.5 -226t238.5 -550q0 -328 -235 -558.5t-566 -230.5q-321 0 -558 225q-241 230 -241 552zM242 750q0 -258 194 -444.5t455 -186.5q267 0 457 187.5t190 455.5q0 259 -192.5 445t-454.5 186q-267 0 -458 -188t-191 -455z M657 1763l394 238l71 -119l-395 -233z" />
<glyph unicode="&#xf4;" d="M90 750q0 327 234.5 557.5t564.5 230.5q324 0 562.5 -226t238.5 -550q0 -328 -235 -558.5t-566 -230.5q-321 0 -558 225q-241 230 -241 552zM242 750q0 -258 194 -444.5t455 -186.5q267 0 457 187.5t190 455.5q0 259 -192.5 445t-454.5 186q-267 0 -458 -188t-191 -455z M528 1649l297 258h131l297 -258h-184l-178 149l-178 -149h-185z" />
<glyph unicode="&#xf5;" d="M90 750q0 327 234.5 557.5t564.5 230.5q324 0 562.5 -226t238.5 -550q0 -328 -235 -558.5t-566 -230.5q-321 0 -558 225q-241 230 -241 552zM242 750q0 -258 194 -444.5t455 -186.5q267 0 457 187.5t190 455.5q0 259 -192.5 445t-454.5 186q-267 0 -458 -188t-191 -455z M594 1772q39 42 83.5 64t96.5 22q60 0 134.5 -41t109.5 -41q30 0 66 21l42 30l62 -98q-15 -14 -33.5 -27t-47.5 -29q-45 -24 -87 -24l-37 3q-7 1 -18.5 4t-20.5 7q-23 8 -67.5 31.5t-69.5 30t-39 6.5q-27 0 -62 -18q-11 -6 -25.5 -17.5t-27.5 -24.5z" />
<glyph unicode="&#xf6;" d="M90 750q0 327 234.5 557.5t564.5 230.5q324 0 562.5 -226t238.5 -550q0 -328 -235 -558.5t-566 -230.5q-321 0 -558 225q-241 230 -241 552zM242 750q0 -258 194 -444.5t455 -186.5q267 0 457 187.5t190 455.5q0 259 -192.5 445t-454.5 186q-267 0 -458 -188t-191 -455z M739 1876v14l3 29q4 17 11 30q15 30 38 56q50 51 127 51q69 0 117 -48.5t48 -119.5q0 -57 -69.5 -125.5t-69.5 -124.5h-108q0 43 27 97q24 45 59 80l38 35q15 17 15 44t-17.5 44.5t-42.5 17.5q-28 0 -45 -16q-22 -20 -22 -64h-109z" />
<glyph unicode="&#xf7;" d="M90 750q0 327 234.5 557.5t564.5 230.5q324 0 562.5 -226t238.5 -550q0 -328 -235 -558.5t-566 -230.5q-321 0 -558 225q-241 230 -241 552zM242 750q0 -258 194 -444.5t455 -186.5q267 0 457 187.5t190 455.5q0 259 -192.5 445t-454.5 186q-267 0 -458 -188t-191 -455z M817 -137h152v-258h-152v258z" />
<glyph unicode="&#xf8;" horiz-adv-x="1341" d="M156 594v919h151v-919q0 -48 3 -91t10 -84q13 -75 58 -145t123.5 -112.5t170.5 -42.5q85 0 157 35.5t120 100t71 162.5q14 72 14 177v919h152v-919q0 -139 -19 -224q-13 -58 -36 -108t-59 -97q-67 -90 -175.5 -141t-224.5 -51q-118 0 -218.5 45.5t-174 134t-102.5 209.5 q-21 90 -21 232zM596 -150h152v-258h-152v258z" />
<glyph unicode="&#xf9;" horiz-adv-x="1341" d="M156 594v919h151v-919q0 -48 3 -91t10 -84q13 -75 58 -145t123.5 -112.5t170.5 -42.5q85 0 157 35.5t120 100t71 162.5q14 72 14 177v919h152v-919q0 -139 -19 -224q-13 -58 -36 -108t-59 -97q-67 -90 -175.5 -141t-224.5 -51q-118 0 -218.5 45.5t-174 134t-102.5 209.5 q-21 90 -21 232zM436 1866l66 123l405 -222l-67 -118z" />
<glyph unicode="&#xfa;" horiz-adv-x="1341" d="M156 594v919h151v-919q0 -48 3 -91t10 -84q13 -75 58 -145t123.5 -112.5t170.5 -42.5q85 0 157 35.5t120 100t71 162.5q14 72 14 177v919h152v-919q0 -139 -19 -224q-13 -58 -36 -108t-59 -97q-67 -90 -175.5 -141t-224.5 -51q-118 0 -218.5 45.5t-174 134t-102.5 209.5 q-21 90 -21 232zM438 1763l393 238l72 -119l-395 -233z" />
<glyph unicode="&#xfb;" horiz-adv-x="1341" d="M156 594v919h151v-919q0 -48 3 -91t10 -84q13 -75 58 -145t123.5 -112.5t170.5 -42.5q85 0 157 35.5t120 100t71 162.5q14 72 14 177v919h152v-919q0 -139 -19 -224q-13 -58 -36 -108t-59 -97q-67 -90 -175.5 -141t-224.5 -51q-118 0 -218.5 45.5t-174 134t-102.5 209.5 q-21 90 -21 232zM360 1796q39 42 84 64t97 22q56 0 131.5 -41t111.5 -41q30 0 68 22l41 29l61 -98q-33 -33 -80 -56.5t-88 -23.5l-37 3q-7 1 -18.5 4t-20.5 7l-71 33l-34 16l-29 13q-18 6 -41 6q-30 0 -60 -15.5t-55 -43.5z" />
<glyph unicode="&#xfc;" horiz-adv-x="1341" d="M156 594v919h151v-919q0 -48 3 -91t10 -84q13 -75 58 -145t123.5 -112.5t170.5 -42.5q85 0 157 35.5t120 100t71 162.5q14 72 14 177v919h152v-919q0 -139 -19 -224q-13 -58 -36 -108t-59 -97q-67 -90 -175.5 -141t-224.5 -51q-118 0 -218.5 45.5t-174 134t-102.5 209.5 q-21 90 -21 232zM494 1876v14q0 15 3 29.5t10 31.5q13 29 37.5 53.5t58.5 38.5q39 13 69 13q69 0 117.5 -48.5t48.5 -119.5q0 -52 -44 -99q-96 -105 -96 -151h-108q0 43 27 97q24 45 59 80l39 35q14 17 14 44t-17.5 44.5t-41.5 17.5q-27 0 -46 -16q-22 -20 -22 -64h-108z " />
<glyph unicode="&#xfd;" horiz-adv-x="1212" d="M4 1513h166l436 -849l436 849h166l-526 -1007v-506h-152v506zM375 1763l393 238l72 -119l-396 -233z" />
<glyph unicode="&#xfe;" d="M90 750q0 327 234.5 557.5t564.5 230.5q34 0 52 -1t64 -6.5t95 -21.5q103 -27 196 -82v207h152v-258h-74q143 -107 229.5 -268t86.5 -346q0 -328 -235 -558.5t-566 -230.5q-321 0 -558 225q-241 230 -241 552zM242 750q0 -258 194 -444.5t455 -186.5q267 0 457 187.5 t190 455.5q0 259 -192.5 445t-454.5 186q-267 0 -458 -188t-191 -455zM817 -137h152v-258h-152v258z" />
<glyph unicode="&#xff;" horiz-adv-x="1341" d="M156 594v919h151v-919q0 -48 3 -91t10 -84q13 -75 58 -145t123.5 -112.5t170.5 -42.5q85 0 157 35.5t120 100t71 162.5q14 72 14 177v919h103v121h151v-258h-102v-782q0 -139 -19 -224q-13 -58 -36 -108t-59 -97q-67 -90 -175.5 -141t-224.5 -51q-118 0 -218.5 45.5 t-174 134t-102.5 209.5q-21 90 -21 232zM360 1796q39 42 84 64t97 22q56 0 131.5 -41t111.5 -41q30 0 68 22l41 29l61 -98q-33 -33 -80 -56.5t-88 -23.5l-37 3q-7 1 -18.5 4t-20.5 7l-71 33l-34 16l-29 13q-18 6 -41 6q-30 0 -60 -15.5t-55 -43.5z" />
<glyph unicode="&#x152;" horiz-adv-x="1098" d="M156 0v1513h827v-137h-676v-545h654v-137h-654v-557h676v-137h-827zM215 1634l297 258h131l297 -258h-184l-178 150l-179 -150h-184zM707 2073v14q0 15 3 29.5t10 31.5q14 32 38 54q53 51 127 51q69 0 117.5 -48.5t48.5 -119.5q0 -52 -44 -100q-96 -105 -96 -150h-108 q0 45 24.5 93t61.5 83l39 36q14 17 14 44q0 25 -17.5 43t-41.5 18q-26 0 -46 -15q-22 -20 -22 -64h-108z" />
<glyph unicode="&#x153;" horiz-adv-x="1341" d="M156 594v919h151v-919q0 -48 3 -91t10 -84q13 -75 58 -145t123.5 -112.5t170.5 -42.5q85 0 157 35.5t120 100t71 162.5q14 72 14 177v919h152v-919q0 -139 -19 -224q-13 -58 -36 -108t-59 -97q-67 -90 -175.5 -141t-224.5 -51q-118 0 -218.5 45.5t-174 134t-102.5 209.5 q-21 90 -21 232zM494 1876v14q0 15 3 29.5t10 31.5q13 29 37.5 53.5t58.5 38.5q39 13 69 13q69 0 117.5 -48.5t48.5 -119.5q0 -52 -44 -99q-96 -105 -96 -151h-108q0 43 27 97q24 45 59 80l39 35q14 17 14 44t-17.5 44.5t-41.5 17.5q-27 0 -46 -16q-22 -20 -22 -64h-108z " />
<glyph unicode="&#x178;" horiz-adv-x="1212" d="M4 1513h166l436 -849l436 849h166l-526 -1007v-506h-152v506zM227 1890l66 123l405 -221l-67 -119z" />
<glyph unicode="&#x2c6;" horiz-adv-x="1098" d="M156 0v1513h827v-137h-676v-545h654v-137h-654v-557h676v-137h-827zM287 1784q39 42 83.5 64t96.5 22q59 0 133.5 -41t110.5 -41q30 0 66 21l42 30l62 -98q-15 -14 -33.5 -27t-47.5 -29q-45 -24 -87 -24l-37 3l-36 9q-10 4 -17 6.5t-16 7.5l-40 20l-39 18l-27 11 q-26 7 -40 7q-27 0 -62 -18q-11 -6 -25.5 -17.5t-27.5 -24.5z" />
<glyph unicode="&#x2dc;" horiz-adv-x="463" d="M156 0v1513h151v-1513h-151zM160 -147h151v-259h-151v259z" />
<glyph unicode="&#x2000;" horiz-adv-x="1167" />
<glyph unicode="&#x2001;" horiz-adv-x="2335" />
<glyph unicode="&#x2002;" horiz-adv-x="1167" />
<glyph unicode="&#x2003;" horiz-adv-x="2335" />
<glyph unicode="&#x2004;" horiz-adv-x="778" />
<glyph unicode="&#x2005;" horiz-adv-x="583" />
<glyph unicode="&#x2006;" horiz-adv-x="389" />
<glyph unicode="&#x2007;" horiz-adv-x="389" />
<glyph unicode="&#x2008;" horiz-adv-x="291" />
<glyph unicode="&#x2009;" horiz-adv-x="467" />
<glyph unicode="&#x200a;" horiz-adv-x="129" />
<glyph unicode="&#x2010;" horiz-adv-x="680" d="M63 547v137h555v-137h-555z" />
<glyph unicode="&#x2011;" horiz-adv-x="680" d="M63 547v137h555v-137h-555z" />
<glyph unicode="&#x2012;" horiz-adv-x="680" d="M63 547v137h555v-137h-555z" />
<glyph unicode="&#x2013;" d="M90 750q0 327 234.5 557.5t564.5 230.5q34 0 52 -1t64 -6.5t95 -21.5q103 -27 196 -82v207h152v-258h-74q143 -107 229.5 -268t86.5 -346q0 -328 -235 -558.5t-566 -230.5q-321 0 -558 225q-241 230 -241 552zM242 750q0 -258 194 -444.5t455 -186.5q267 0 457 187.5 t190 455.5q0 259 -192.5 445t-454.5 186q-267 0 -458 -188t-191 -455zM655 1866l66 123l405 -222l-67 -118z" />
<glyph unicode="&#x2014;" d="M90 750q0 327 234.5 557.5t564.5 230.5q34 0 52 -1t64 -6.5t95 -21.5q103 -27 196 -82v207h152v-258h-74q143 -107 229.5 -268t86.5 -346q0 -328 -235 -558.5t-566 -230.5q-321 0 -558 225q-241 230 -241 552zM242 750q0 -258 194 -444.5t455 -186.5q267 0 457 187.5 t190 455.5q0 259 -192.5 445t-454.5 186q-267 0 -458 -188t-191 -455zM707 1876v14q0 15 3 29.5t10 31.5q13 29 37.5 53.5t58.5 38.5q39 13 69 13q69 0 117.5 -48.5t48.5 -119.5q0 -52 -44 -99q-96 -105 -96 -151h-108q0 43 27 97q24 45 59 80l39 35q14 17 14 44t-17.5 44.5 t-41.5 17.5q-27 0 -46 -16q-22 -20 -22 -64h-108z" />
<glyph unicode="&#x2018;" d="M90 750q0 327 234.5 557.5t564.5 230.5q324 0 562.5 -226t238.5 -550q0 -328 -235 -558.5t-566 -230.5q-321 0 -558 225q-241 230 -241 552zM242 750q0 -258 194 -444.5t455 -186.5q267 0 457 187.5t190 455.5q0 259 -192.5 445t-454.5 186q-267 0 -458 -188t-191 -455z M528 1649l297 258h131l297 -258h-184l-178 149l-178 -149h-185zM1067 2073v14l3 29q4 17 11 30q12 28 37 56q53 51 127 51q69 0 117.5 -48.5t48.5 -119.5q0 -49 -95 -151q-44 -49 -44 -99h-109q0 45 24.5 93t61.5 83l39 36q15 17 15 44q0 25 -17.5 43t-42.5 18 q-27 0 -45 -15q-22 -20 -22 -64h-109z" />
<glyph unicode="&#x2019;" d="M90 750q0 327 234.5 557.5t564.5 230.5q324 0 562.5 -226t238.5 -550q0 -328 -235 -558.5t-566 -230.5q-321 0 -558 225q-241 230 -241 552zM242 750q0 -258 194 -444.5t455 -186.5q267 0 457 187.5t190 455.5q0 259 -192.5 445t-454.5 186q-267 0 -458 -188t-191 -455z M528 1649l297 258h131l297 -258h-184l-178 149l-178 -149h-185zM606 2140q38 41 82 63.5t98 22.5q60 0 134.5 -41t109.5 -41q30 0 68 22l41 29l61 -98q-33 -33 -80 -56.5t-88 -23.5l-37 3q-7 1 -18.5 4t-20.5 7l-71 33l-37 19q-38 16 -68 16q-31 0 -61 -17q-28 -14 -53 -42z " />
<glyph unicode="&#x201a;" horiz-adv-x="1516" d="M23 0l653 1513h168l649 -1513h-164l-219 508h-704l-220 -508h-163zM457 1855h129q21 -43 76 -71q52 -23 106 -23q60 0 109 22.5t73 71.5h129q-26 -104 -116 -159q-81 -51 -195 -51q-113 0 -194 50q-90 56 -117 160zM465 645h586l-291 694zM485 2132l66 66l283 -281 l-66 -66z" />
<glyph unicode="&#x201c;" d="M90 750q0 327 234.5 557.5t564.5 230.5q324 0 562.5 -226t238.5 -550q0 -328 -235 -558.5t-566 -230.5q-321 0 -558 225q-241 230 -241 552zM242 750q0 -258 194 -444.5t455 -186.5q267 0 457 187.5t190 455.5q0 259 -192.5 445t-454.5 186q-267 0 -458 -188t-191 -455z M528 1649l297 258h131l297 -258h-184l-178 149l-178 -149h-185zM805 -162h151v-258h-151v258z" />
<glyph unicode="&#x201d;" d="M90 750q0 327 234.5 557.5t564.5 230.5q34 0 52 -1t64 -6.5t95 -21.5q103 -27 196 -82v207h152v-258h-74q143 -107 229.5 -268t86.5 -346q0 -328 -235 -558.5t-566 -230.5q-321 0 -558 225q-241 230 -241 552zM242 750q0 -258 194 -444.5t455 -186.5q267 0 457 187.5 t190 455.5q0 259 -192.5 445t-454.5 186q-267 0 -458 -188t-191 -455zM817 -137h152v-258h-152v258z" />
<glyph unicode="&#x201e;" horiz-adv-x="1516" d="M23 0l653 1513h168l649 -1513h-164l-219 508h-704l-220 -508h-163zM395 1649l297 258h131l297 -258h-184l-178 149l-178 -149h-185zM465 645h586l-291 694zM936 1898l283 281l65 -65l-283 -281z" />
<glyph unicode="&#x2022;" d="M90 750q0 327 234.5 557.5t564.5 230.5q34 0 52 -1t64 -6.5t95 -21.5q103 -27 196 -82v207h152v-258h-74q143 -107 229.5 -268t86.5 -346q0 -328 -235 -558.5t-566 -230.5q-321 0 -558 225q-241 230 -241 552zM242 750q0 -258 194 -444.5t455 -186.5q267 0 457 187.5 t190 455.5q0 259 -192.5 445t-454.5 186q-267 0 -458 -188t-191 -455zM657 1763l394 238l71 -119l-395 -233z" />
<glyph unicode="&#x2026;" horiz-adv-x="1516" d="M23 0l653 1513h168l649 -1513h-164l-219 508h-704l-220 -508h-163zM229 2122l66 65l283 -280l-66 -66zM399 1634l297 258h131l297 -258h-184l-178 150l-178 -150h-185zM465 645h586l-291 694z" />
<glyph unicode="&#x202f;" horiz-adv-x="467" />
<glyph unicode="&#x2039;" horiz-adv-x="1098" d="M45 2122l66 65l282 -280l-65 -66zM156 0v1513h827v-137h-676v-545h654v-137h-654v-557h676v-137h-827zM215 1634l297 258h131l297 -258h-184l-178 150l-179 -150h-184z" />
<glyph unicode="&#x203a;" horiz-adv-x="463" d="M84 1876v14q0 15 3 29.5t10 31.5q13 29 37.5 53.5t58.5 38.5q39 13 69 13q69 0 117.5 -48.5t48.5 -119.5q0 -57 -69.5 -125.5t-69.5 -124.5h-109q0 43 27 97q24 45 59 80l39 35q14 17 14 44q0 28 -17 45t-42 17q-28 0 -45 -16q-22 -20 -22 -64h-109zM156 0v1513h151 v-1513h-151z" />
<glyph unicode="&#x205f;" horiz-adv-x="583" />
<glyph unicode="&#x2122;" d="M90 750q0 327 234.5 557.5t564.5 230.5q324 0 562.5 -226t238.5 -550q0 -328 -235 -558.5t-566 -230.5q-321 0 -558 225q-241 230 -241 552zM242 750q0 -258 194 -444.5t455 -186.5q267 0 457 187.5t190 455.5q0 259 -192.5 445t-454.5 186q-267 0 -458 -188t-191 -455z M739 1876v14l3 29q4 17 11 30q15 30 38 56q50 51 127 51q69 0 117 -48.5t48 -119.5q0 -57 -69.5 -125.5t-69.5 -124.5h-108q0 43 27 97q24 45 59 80l38 35q15 17 15 44t-17.5 44.5t-42.5 17.5q-28 0 -45 -16q-22 -20 -22 -64h-109z" />
<glyph unicode="&#x25fc;" horiz-adv-x="1515" d="M0 0v1515h1515v-1515h-1515z" />
</font>
</defs>
</svg>
